<svg width="20" height="20" viewBox="0 0 20 20" fill="none" xmlns="http://www.w3.org/2000/svg">
<path d="M18.1484 14.5216C18.1019 14.5215 18.0563 14.5095 18.0159 14.4866C17.9754 14.4638 17.9415 14.4309 17.9175 14.3912C17.8935 14.3515 17.8801 14.3062 17.8786 14.2598C17.8772 14.2134 17.8877 14.1673 17.9092 14.1262C18.5273 12.9302 18.8691 11.6108 18.9094 10.2653C18.9498 8.91965 18.6877 7.58214 18.1424 6.35131C18.1132 6.28587 18.1111 6.21148 18.1367 6.14453C18.1623 6.07757 18.2135 6.02353 18.2789 5.99428C18.3444 5.96504 18.4187 5.96299 18.4857 5.98858C18.5527 6.01418 18.6067 6.06532 18.6359 6.13077C19.2143 7.43622 19.4923 8.85485 19.4494 10.2821C19.4065 11.7093 19.0439 13.1086 18.3881 14.377C18.3652 14.4207 18.3307 14.4573 18.2884 14.4827C18.2462 14.5082 18.1977 14.5217 18.1484 14.5216V14.5216Z" fill="#758395"/>
<path d="M14.2895 18.3973C14.229 18.3973 14.1703 18.3771 14.1227 18.3398C14.0751 18.3025 14.0414 18.2503 14.0269 18.1916C14.0125 18.1329 14.0181 18.071 14.043 18.0159C14.0679 17.9608 14.1105 17.9156 14.1641 17.8876C14.3989 17.7646 14.6235 17.6343 14.8284 17.5003C14.8885 17.4612 14.9617 17.4476 15.0318 17.4624C15.102 17.4773 15.1633 17.5194 15.2024 17.5795C15.2415 17.6396 15.2552 17.7127 15.2403 17.7829C15.2255 17.853 15.1834 17.9144 15.1233 17.9535C14.903 18.0968 14.6638 18.2357 14.4143 18.3665C14.3758 18.3867 14.333 18.3972 14.2895 18.3973V18.3973Z" fill="#758395"/>
<path d="M10.0068 19.4576C7.49624 19.4583 5.08814 18.4623 3.31162 16.6884C3.26238 16.6374 3.23514 16.5691 3.23576 16.4983C3.23637 16.4274 3.2648 16.3596 3.31491 16.3095C3.36502 16.2594 3.43281 16.231 3.50367 16.2304C3.57453 16.2297 3.64281 16.257 3.69378 16.3062C4.81466 17.4251 6.21285 18.2258 7.74508 18.6263C9.27731 19.0269 10.8885 19.0128 12.4135 18.5857C12.4825 18.5663 12.5564 18.5752 12.6189 18.6103C12.6814 18.6454 12.7274 18.7039 12.7468 18.773C12.7661 18.842 12.7573 18.9159 12.7221 18.9784C12.687 19.0409 12.6285 19.0869 12.5595 19.1062C11.7286 19.3394 10.8697 19.4576 10.0068 19.4576V19.4576Z" fill="#758395"/>
<path d="M16.4541 16.8081C16.3984 16.8081 16.3442 16.791 16.2987 16.759C16.2532 16.727 16.2187 16.6818 16.1998 16.6295C16.1809 16.5772 16.1787 16.5203 16.1933 16.4667C16.208 16.413 16.2388 16.3652 16.2816 16.3297C16.2908 16.3222 16.2984 16.3141 16.3062 16.3062C16.4803 16.1319 16.6465 15.95 16.8003 15.7657C16.8225 15.7372 16.8503 15.7135 16.8819 15.6959C16.9135 15.6784 16.9483 15.6673 16.9842 15.6634C17.0201 15.6595 17.0565 15.6629 17.0911 15.6733C17.1257 15.6838 17.1579 15.701 17.1857 15.7241C17.2135 15.7471 17.2365 15.7756 17.2531 15.8076C17.2698 15.8397 17.2798 15.8748 17.2826 15.9109C17.2855 15.9469 17.2811 15.9831 17.2697 16.0174C17.2583 16.0517 17.2401 16.0834 17.2162 16.1105C17.0519 16.3084 16.8746 16.5027 16.6887 16.6884C16.669 16.7086 16.6484 16.7277 16.6268 16.7457C16.5782 16.786 16.5171 16.8081 16.4541 16.8081V16.8081Z" fill="#758395"/>
<path d="M1.65838 14.1308C1.60677 14.1308 1.55624 14.1161 1.51276 14.0883C1.46927 14.0605 1.43464 14.0209 1.41297 13.9741C0.480241 11.9576 0.286882 9.67727 0.866777 7.53258C1.44667 5.38789 2.76283 3.51568 4.58461 2.24403C6.40639 0.972388 8.61759 0.382421 10.8307 0.577518C13.0438 0.772616 15.1177 1.74033 16.6889 3.31109C16.714 3.3362 16.7339 3.36601 16.7475 3.39882C16.7611 3.43163 16.7681 3.46679 16.7681 3.5023C16.7681 3.53782 16.7611 3.57298 16.7475 3.60579C16.7339 3.6386 16.714 3.66841 16.6889 3.69352C16.6638 3.71863 16.634 3.73855 16.6012 3.75214C16.5684 3.76573 16.5332 3.77272 16.4977 3.77272C16.4622 3.77272 16.427 3.76573 16.3942 3.75214C16.3614 3.73855 16.3316 3.71863 16.3065 3.69352C14.825 2.21254 12.8696 1.30016 10.7829 1.11626C8.69625 0.93235 6.6114 1.48865 4.89373 2.68768C3.17606 3.88671 1.93514 5.65197 1.38841 7.67413C0.841687 9.6963 1.02404 11.8464 1.90351 13.7476C1.92257 13.7887 1.93095 13.834 1.92789 13.8793C1.92483 13.9246 1.91043 13.9683 1.88601 14.0066C1.86159 14.0448 1.82794 14.0763 1.78815 14.0981C1.74837 14.1199 1.70374 14.1313 1.65838 14.1314V14.1308Z" fill="#758395"/>
<path d="M16.4978 3.7724H14.4813C14.4097 3.7724 14.3409 3.74393 14.2902 3.69324C14.2395 3.64256 14.2111 3.57381 14.2111 3.50213C14.2111 3.43045 14.2395 3.36171 14.2902 3.31102C14.3409 3.26034 14.4097 3.23186 14.4813 3.23186H16.2276V1.48646C16.2276 1.41478 16.256 1.34603 16.3067 1.29535C16.3574 1.24466 16.4262 1.21619 16.4978 1.21619C16.5695 1.21619 16.6383 1.24466 16.689 1.29535C16.7396 1.34603 16.7681 1.41478 16.7681 1.48646V3.50294C16.7679 3.57448 16.7393 3.64302 16.6887 3.69353C16.638 3.74404 16.5694 3.7724 16.4978 3.7724Z" fill="#758395"/>
<path d="M3.50216 18.7837C3.43048 18.7837 3.36173 18.7553 3.31105 18.7046C3.26036 18.6539 3.23189 18.5852 3.23189 18.5135V16.4978C3.23189 16.4261 3.26036 16.3574 3.31105 16.3067C3.36173 16.256 3.43048 16.2275 3.50216 16.2275H5.51865C5.59033 16.2275 5.65908 16.256 5.70976 16.3067C5.76045 16.3574 5.78892 16.4261 5.78892 16.4978C5.78892 16.5695 5.76045 16.6382 5.70976 16.6889C5.65908 16.7396 5.59033 16.7681 5.51865 16.7681H3.77243V18.5135C3.77243 18.5852 3.74395 18.6539 3.69327 18.7046C3.64258 18.7553 3.57384 18.7837 3.50216 18.7837Z" fill="#758395"/>
<path d="M9.99999 15.946C8.824 15.946 7.67441 15.5972 6.6966 14.9439C5.7188 14.2906 4.95669 13.3619 4.50666 12.2754C4.05662 11.189 3.93887 9.99343 4.1683 8.84003C4.39772 7.68663 4.96402 6.62716 5.79558 5.79561C6.62713 4.96405 7.6866 4.39776 8.84 4.16833C9.9934 3.9389 11.1889 4.05665 12.2754 4.50669C13.3619 4.95672 14.2905 5.71883 14.9439 6.69664C15.5972 7.67444 15.9459 8.82403 15.9459 10C15.9441 11.5764 15.3171 13.0878 14.2024 14.2025C13.0877 15.3172 11.5764 15.9442 9.99999 15.946V15.946ZM9.99999 4.59462C8.9309 4.59462 7.88583 4.91164 6.99691 5.5056C6.108 6.09955 5.41517 6.94376 5.00605 7.93147C4.59693 8.91918 4.48988 10.006 4.69845 11.0546C4.90702 12.1031 5.42184 13.0663 6.1778 13.8222C6.93375 14.5782 7.89691 15.093 8.94545 15.3016C9.994 15.5101 11.0808 15.4031 12.0686 14.994C13.0563 14.5848 13.9005 13.892 14.4944 13.0031C15.0884 12.1142 15.4054 11.0691 15.4054 10C15.4038 8.56693 14.8337 7.193 13.8204 6.17964C12.807 5.16629 11.4331 4.59627 9.99999 4.59462Z" fill="#758395"/>
<path d="M10 10.2703C9.65923 10.2703 9.32611 10.1692 9.04277 9.97991C8.75942 9.79059 8.53859 9.52149 8.40818 9.20666C8.27777 8.89183 8.24365 8.5454 8.31013 8.21118C8.37661 7.87695 8.54071 7.56995 8.78167 7.32899C9.02264 7.08803 9.32964 6.92393 9.66386 6.85745C9.99809 6.79097 10.3445 6.82509 10.6594 6.95549C10.9742 7.0859 11.2433 7.30674 11.4326 7.59008C11.6219 7.87342 11.723 8.20654 11.723 8.54731C11.723 8.61899 11.6945 8.68774 11.6438 8.73842C11.5931 8.78911 11.5244 8.81758 11.4527 8.81758C11.381 8.81758 11.3123 8.78911 11.2616 8.73842C11.2109 8.68774 11.1824 8.61899 11.1824 8.54731C11.1824 8.31345 11.1131 8.08484 10.9832 7.89039C10.8532 7.69594 10.6686 7.54438 10.4525 7.45489C10.2364 7.36539 9.99869 7.34198 9.76932 7.3876C9.53995 7.43323 9.32926 7.54584 9.16389 7.71121C8.99853 7.87657 8.88591 8.08726 8.84029 8.31663C8.79466 8.546 8.81808 8.78375 8.90757 8.99981C8.99707 9.21587 9.14863 9.40054 9.34308 9.53047C9.53753 9.66039 9.76614 9.72974 10 9.72974C10.0717 9.72974 10.1404 9.75822 10.1911 9.8089C10.2418 9.85959 10.2703 9.92833 10.2703 10C10.2703 10.0717 10.2418 10.1404 10.1911 10.1911C10.1404 10.2418 10.0717 10.2703 10 10.2703Z" fill="#758395"/>
<path d="M10 13.1757C9.54319 13.1752 9.10524 12.9935 8.78223 12.6705C8.45921 12.3475 8.27752 11.9095 8.27702 11.4527C8.27702 11.381 8.3055 11.3123 8.35618 11.2616C8.40687 11.2109 8.47561 11.1824 8.54729 11.1824C8.61898 11.1824 8.68772 11.2109 8.73841 11.2616C8.78909 11.3123 8.81757 11.381 8.81757 11.4527C8.81757 11.6866 8.88691 11.9152 9.01684 12.1096C9.14677 12.3041 9.33144 12.4556 9.5475 12.5451C9.76357 12.6346 10.0013 12.658 10.2307 12.6124C10.4601 12.5668 10.6707 12.4542 10.8361 12.2888C11.0015 12.1234 11.1141 11.9128 11.1597 11.6834C11.2053 11.454 11.1819 11.2163 11.0924 11.0002C11.0029 10.7842 10.8514 10.5995 10.6569 10.4696C10.4625 10.3396 10.2339 10.2703 10 10.2703C9.92832 10.2703 9.85958 10.2418 9.80889 10.1911C9.75821 10.1404 9.72973 10.0717 9.72973 10C9.72973 9.92833 9.75821 9.85958 9.80889 9.8089C9.85958 9.75821 9.92832 9.72974 10 9.72974C10.457 9.72974 10.8952 9.91126 11.2183 10.2344C11.5415 10.5575 11.723 10.9957 11.723 11.4527C11.723 11.9097 11.5415 12.3479 11.2183 12.671C10.8952 12.9942 10.457 13.1757 10 13.1757Z" fill="#758395"/>
<path d="M10 13.7838C9.92833 13.7838 9.85958 13.7553 9.8089 13.7046C9.75821 13.6539 9.72974 13.5852 9.72974 13.5135V6.48646C9.72974 6.41478 9.75821 6.34603 9.8089 6.29535C9.85958 6.24466 9.92833 6.21619 10 6.21619C10.0717 6.21619 10.1404 6.24466 10.1911 6.29535C10.2418 6.34603 10.2703 6.41478 10.2703 6.48646V13.5135C10.2703 13.5852 10.2418 13.6539 10.1911 13.7046C10.1404 13.7553 10.0717 13.7838 10 13.7838Z" fill="#758395"/>
</svg>
